<svg width="20" height="19" viewBox="0 0 20 19" fill="none" xmlns="http://www.w3.org/2000/svg">
<path fill-rule="evenodd" clip-rule="evenodd" d="M8.00028 0.25C7.66897 0.249837 7.34442 0.343726 7.06437 0.52075C6.78431 0.697774 6.56027 0.950659 6.41828 1.25C5.73428 1.256 5.20228 1.287 4.72628 1.473C4.15805 1.69527 3.66387 2.07301 3.30028 2.563C2.93328 3.056 2.76028 3.69 2.52428 4.561L2.47728 4.731L1.96428 7.695C1.77928 7.823 1.61828 7.975 1.47828 8.154C0.577277 9.307 1.00628 11.024 1.86428 14.455C2.40928 16.638 2.68228 17.729 3.49628 18.365C4.31028 19 5.43528 19 7.68528 19H12.3153C14.5653 19 15.6903 19 16.5043 18.365C17.3183 17.729 17.5903 16.638 18.1363 14.455C18.9943 11.023 19.4233 9.308 18.5223 8.154C18.3845 7.97656 18.2203 7.8214 18.0353 7.694L17.5223 4.732L17.4763 4.562C17.2393 3.69 17.0663 3.056 16.7003 2.562C16.3365 2.07238 15.8424 1.695 15.2743 1.473C14.7983 1.287 14.2653 1.256 13.5823 1.251C13.4404 0.951472 13.2164 0.69838 12.9364 0.521172C12.6563 0.343965 12.3317 0.249927 12.0003 0.25H8.00028ZM16.4183 7.146L16.0563 5.058C15.7733 4.018 15.6703 3.691 15.4963 3.457C15.3005 3.19311 15.0343 2.98968 14.7283 2.87C14.5083 2.784 14.2423 2.759 13.5803 2.752C13.4381 3.05066 13.2143 3.30293 12.9346 3.47956C12.655 3.6562 12.331 3.74996 12.0003 3.75H8.00028C7.66952 3.74996 7.34555 3.6562 7.06591 3.47956C6.78627 3.30293 6.56241 3.05066 6.42028 2.752C5.75728 2.759 5.49228 2.784 5.27228 2.87C4.96624 2.98968 4.70009 3.19311 4.50428 3.457C4.33028 3.691 4.22728 4.017 3.94428 5.057L3.58228 7.146C4.58028 7 5.91028 7 7.68528 7H12.3153C14.0903 7 15.4203 7 16.4183 7.146ZM6.00028 10.25C6.19919 10.25 6.38995 10.329 6.53061 10.4697C6.67126 10.6103 6.75028 10.8011 6.75028 11V15C6.75028 15.1989 6.67126 15.3897 6.53061 15.5303C6.38995 15.671 6.19919 15.75 6.00028 15.75C5.80136 15.75 5.6106 15.671 5.46995 15.5303C5.32929 15.3897 5.25028 15.1989 5.25028 15V11C5.25028 10.8011 5.32929 10.6103 5.46995 10.4697C5.6106 10.329 5.80136 10.25 6.00028 10.25ZM14.7503 11C14.7503 10.8011 14.6713 10.6103 14.5306 10.4697C14.39 10.329 14.1992 10.25 14.0003 10.25C13.8014 10.25 13.6106 10.329 13.4699 10.4697C13.3293 10.6103 13.2503 10.8011 13.2503 11V15C13.2503 15.1989 13.3293 15.3897 13.4699 15.5303C13.6106 15.671 13.8014 15.75 14.0003 15.75C14.1992 15.75 14.39 15.671 14.5306 15.5303C14.6713 15.3897 14.7503 15.1989 14.7503 15V11ZM10.0003 10.25C10.1992 10.25 10.39 10.329 10.5306 10.4697C10.6713 10.6103 10.7503 10.8011 10.7503 11V15C10.7503 15.1989 10.6713 15.3897 10.5306 15.5303C10.39 15.671 10.1992 15.75 10.0003 15.75C9.80136 15.75 9.6106 15.671 9.46995 15.5303C9.32929 15.3897 9.25028 15.1989 9.25028 15V11C9.25028 10.8011 9.32929 10.6103 9.46995 10.4697C9.6106 10.329 9.80136 10.25 10.0003 10.25Z" fill="#637381"/>
</svg>
