<svg width="24" height="24" viewBox="0 0 24 24" fill="none" xmlns="http://www.w3.org/2000/svg">
<path opacity="0.5" fill-rule="evenodd" clip-rule="evenodd" d="M14 22H10C6.229 22 4.343 22 3.172 20.828C2 19.657 2 17.771 2 14V10C2 6.229 2 4.343 3.172 3.172C4.343 2 6.239 2 10.03 2C10.636 2 11.121 2 11.53 2.017C11.517 2.097 11.51 2.178 11.51 2.261L11.5 5.095C11.5 6.192 11.5 7.162 11.605 7.943C11.719 8.79 11.98 9.637 12.672 10.329C13.362 11.019 14.21 11.281 15.057 11.395C15.838 11.5 16.808 11.5 17.905 11.5H21.957C22 12.034 22 12.69 22 13.563V14C22 17.771 22 19.657 20.828 20.828C19.657 22 17.771 22 14 22Z" fill="#637381"/>
<path d="M10.5602 15.4979C10.6302 15.4251 10.6849 15.339 10.7209 15.2446C10.7568 15.1502 10.7734 15.0495 10.7695 14.9486C10.7656 14.8477 10.7413 14.7485 10.6982 14.6572C10.6551 14.5659 10.5939 14.4842 10.5184 14.4171C10.443 14.3499 10.3547 14.2988 10.2589 14.2666C10.1632 14.2344 10.0619 14.2219 9.96123 14.2298C9.86053 14.2377 9.76247 14.2659 9.67293 14.3127C9.58339 14.3594 9.50421 14.4238 9.44015 14.5019L7.33315 16.8719L6.56115 16.0019C6.42907 15.8531 6.2433 15.7629 6.0447 15.7511C5.8461 15.7392 5.65094 15.8068 5.50215 15.9389C5.35336 16.071 5.26314 16.2567 5.25133 16.4553C5.23951 16.6539 5.30707 16.8491 5.43915 16.9979L6.77315 18.4979C6.84351 18.5769 6.92978 18.6401 7.02629 18.6833C7.1228 18.7266 7.22738 18.749 7.33315 18.749C7.43892 18.749 7.5435 18.7266 7.64001 18.6833C7.73652 18.6401 7.82279 18.5769 7.89315 18.4979L10.5602 15.4979ZM11.5102 2.25988L11.5002 5.09488C11.5002 6.19188 11.5002 7.16088 11.6052 7.94288C11.7192 8.78988 11.9802 9.63688 12.6722 10.3279C13.3622 11.0189 14.2102 11.2809 15.0572 11.3949C15.8382 11.4999 16.8082 11.4999 17.9052 11.4999H21.9572C21.9702 11.6549 21.9792 11.8209 21.9852 11.9999H22.0002C22.0002 11.7319 22.0002 11.5979 21.9902 11.4399C21.9131 10.4896 21.5823 9.57752 21.0322 8.79888C20.9382 8.67088 20.8742 8.59488 20.7472 8.44188C19.9542 7.49388 18.9102 6.31188 18.0002 5.49988C17.1902 4.77588 16.0792 3.98488 15.1102 3.33788C14.2782 2.78288 13.8622 2.50488 13.2912 2.29788C13.125 2.23878 12.9562 2.18773 12.7852 2.14488C12.4012 2.04988 12.0272 2.01688 11.5002 2.00488L11.5102 2.25988Z" fill="#637381"/>
</svg>
